<?xml version="1.0" encoding="UTF-8"?>
<svg width="66px" height="64px" viewBox="0 0 66 64" version="1.1" xmlns="http://www.w3.org/2000/svg" xmlns:xlink="http://www.w3.org/1999/xlink">
    <!-- Generator: Sketch 50.2 (55047) - http://www.bohemiancoding.com/sketch -->
    <title>Page 1</title>
    <desc>Created with Sketch.</desc>
    <defs></defs>
    <g id="Page-1" stroke="none" stroke-width="1" fill="none" fill-rule="evenodd">
        <g id="Playground-logo" fill="#F5F5F5" fill-rule="nonzero">
            <g id="Page-1">
                <path d="M32.0441897,25.421125 C32.6067176,25.1085141 33.2907863,25.1085141 33.8533142,25.421125 L64.7837372,42.6099412 C66.0581569,43.3181684 66.0611615,45.1499908 64.789072,45.8623949 L33.858649,63.1842563 C33.293356,63.5008354 32.6041479,63.5008354 32.0388549,63.1842563 L1.10843191,45.8623949 C-0.163657639,45.1499908 -0.160653016,43.3181684 1.11376671,42.6099412 L32.0441897,25.421125 Z M32.948752,29.1792429 L5.840602,44.2439255 L32.948752,59.4252121 L60.0569019,44.2439255 L32.948752,29.1792429 Z" id="Path-2"></path>
                <path d="M32.0441897,0.444431812 C32.6067176,0.131820891 33.2907863,0.131820891 33.8533142,0.444431812 L64.7837372,17.633248 C66.0581569,18.3414751 66.0611615,20.1732976 64.789072,20.8857017 L33.858649,38.2075631 C33.293356,38.5241422 32.6041479,38.5241422 32.0388549,38.2075631 L1.10843191,20.8857017 C-0.163657639,20.1732976 -0.160653016,18.3414751 1.11376671,17.633248 L32.0441897,0.444431812 Z M32.948752,4.2025497 L5.840602,19.2672323 L32.948752,34.4485189 L60.0569019,19.2672323 L32.948752,4.2025497 Z" id="Path-2-Copy"></path>
                <path d="M32.0441897,12.1625804 C32.6067176,11.8499695 33.2907863,11.8499695 33.8533142,12.1625804 L64.7837372,29.3513965 C66.0581569,30.0596237 66.0611615,31.8914462 64.789072,32.6038502 L33.858649,49.9257116 C33.293356,50.2422908 32.6041479,50.2422908 32.0388549,49.9257116 L1.10843191,32.6038502 C-0.163657639,31.8914462 -0.160653016,30.0596237 1.11376671,29.3513965 L32.0441897,12.1625804 Z M32.948752,15.9206983 L5.840602,30.9853809 L32.948752,46.1666675 L60.0569019,30.9853809 L32.948752,15.9206983 Z" id="Path-2-Copy-2"></path>
            </g>
        </g>
    </g>
</svg>